<svg width="324" height="62" viewBox="0 0 324 62" fill="none" xmlns="http://www.w3.org/2000/svg">
<path d="M54.7307 61L70.6221 18.0525H64.021L51.4709 54.399L38.8393 18.0525H32.1568L19.6882 54.399L6.97509 18.0525H0.29256L16.3469 61H22.948L35.4981 26.1205L48.1297 61H54.7307ZM102.377 17.8896C89.6637 17.8896 80.6178 26.6909 80.6178 39.4855C80.6178 52.3616 89.6637 61.2445 102.377 61.2445C115.09 61.2445 124.136 52.3616 124.136 39.4855C124.136 26.6909 115.09 17.8896 102.377 17.8896ZM102.377 23.6756C111.341 23.6756 117.779 30.1952 117.779 39.567C117.779 49.0204 111.341 55.5399 102.377 55.5399C93.4124 55.5399 86.9744 49.0204 86.9744 39.567C86.9744 30.1952 93.4124 23.6756 102.377 23.6756ZM149.82 18.0525H143.463V61H149.82V38.1816C150.553 29.7062 156.176 24.0831 165.222 24.2461V17.8081C157.969 17.8896 152.672 21.3123 149.82 27.5874V18.0525ZM221.377 0.531288H215.021V27.3429C211.843 21.2308 205.894 17.7266 198.233 17.7266C186.09 17.7266 177.615 26.6094 177.615 39.4855C177.615 52.2801 186.09 61.326 198.315 61.326C205.975 61.326 211.843 57.8217 215.021 51.7912V61H221.377V0.531288ZM199.537 55.6214C190.41 55.6214 183.972 48.9389 183.972 39.6485C183.972 30.2767 190.41 23.5127 199.537 23.5127C208.583 23.5127 215.021 30.2767 215.021 39.6485C215.021 48.9389 208.583 55.6214 199.537 55.6214ZM262.345 17.8896C249.877 17.8896 241.075 26.7724 241.075 39.567C241.075 52.3616 249.795 61.2445 262.427 61.2445C269.598 61.2445 275.629 58.6367 279.704 54.073L276.2 50.3243C272.858 53.8285 268.213 55.7029 262.916 55.7029C254.604 55.7029 248.491 50.4058 247.351 42.0118H282.393C283.045 27.4244 276.2 17.8081 262.345 17.8896ZM247.351 36.7962C248.328 28.6468 254.196 23.3497 262.345 23.3497C270.739 23.3497 276.281 28.5653 276.688 36.7962H247.351ZM307.81 18.0525H301.454V61H307.81V38.1816C308.544 29.7062 314.167 24.0831 323.213 24.2461V17.8081C315.96 17.8896 310.663 21.3123 307.81 27.5874V18.0525Z" fill="white"/>
</svg>
